<svg width="151" height="67" viewBox="0 0 151 67" fill="none" xmlns="http://www.w3.org/2000/svg">
<path d="M100.5 0.299805V8.4998H86.6V15.4998H77.4V0.299805H100.5Z" fill="#D69F03"/>
<path d="M98.1 18.6V26.3H86.5C86.5 29.9 86.5 33.5 86.5 37.1C83.5 39.4 77.4 43.3 69.2 43.3C68.2 43.3 66.6 43.3 64.7 42.9C54.4 41 46.7 32.2 46.7 21.6C46.7 9.7 56.7 0 68.9 0C70.5 0 72 0.2 73.5 0.5V8.8C72.4 8.5 71.2 8.4 70 8.4C62.4 8.4 56.3 14.4 56.3 21.8C56.3 29.2 62.4 35.2 70 35.2C72.8 35.2 75.4 34.4 77.6 33V26.5H66V18.8H98.1V18.6Z" fill="white"/>
<path d="M7 58.1001H13.4V64.2001C12.6 64.8001 11.7 65.2001 10.7 65.5001C9.7 65.8001 8.6 66.0001 7.6 66.0001C6.1 66.0001 4.8 65.7001 3.7 65.1001C2.5 64.5001 1.6 63.6001 1 62.5001C0.3 61.4001 0 60.2001 0 58.8001C0 57.4001 0.3 56.2001 1 55.1001C1.7 54.0001 2.6 53.1001 3.8 52.5001C5 51.9001 6.3 51.6001 7.8 51.6001C9.1 51.6001 10.3 51.8001 11.3 52.3001C12.3 52.7001 13.2 53.4001 13.9 54.2001L11.4 56.5001C10.5 55.5001 9.3 54.9001 8 54.9001C6.8 54.9001 5.8 55.3001 5.1 56.0001C4.2 56.6001 3.9 57.5001 3.9 58.7001C3.9 59.5001 4.1 60.2001 4.4 60.8001C4.7 61.4001 5.2 61.9001 5.8 62.2001C6.4 62.5001 7.1 62.7001 7.8 62.7001C8.6 62.7001 9.3 62.5001 9.9 62.2001V61.1001H6.9V58.1001H7Z" fill="white"/>
<path d="M20.9 61.9998H18.8V65.6998H14.9V51.7998H21.3C22.6 51.7998 23.7 51.9998 24.6 52.3998C25.5 52.7998 26.2 53.3998 26.7 54.1998C27.2 54.9998 27.5 55.8998 27.5 56.8998C27.5 57.8998 27.3 58.7998 26.8 59.4998C26.3 60.1998 25.7 60.7998 24.8 61.2998L27.8 65.6998H23.6L20.9 61.9998ZM22.8 55.3998C22.4 54.9998 21.8 54.8998 21 54.8998H18.8V58.9998H20.9C21.7 58.9998 22.3 58.7998 22.7 58.4998C23.1 58.0998 23.3 57.5998 23.3 56.9998C23.4 56.2998 23.2 55.7998 22.8 55.3998Z" fill="white"/>
<path d="M30 64.2998C28.9 63.1998 28.3 61.5998 28.3 59.4998V51.7998H32.2V59.3998C32.2 61.5998 33.1 62.6998 34.8 62.6998C36.5 62.6998 37.4 61.5998 37.4 59.3998V51.7998H41.3V59.4998C41.3 61.5998 40.7 63.1998 39.6 64.2998C38.5 65.3998 36.9 65.9998 34.8 65.9998C32.7 65.9998 31.2 65.3998 30 64.2998Z" fill="white"/>
<path d="M52.6 52.3998C53.5 52.7998 54.2 53.3998 54.7 54.1998C55.2 54.9998 55.5 55.8998 55.5 56.8998C55.5 57.8998 55.2 58.8998 54.7 59.5998C54.2 60.3998 53.5 60.9998 52.6 61.3998C51.7 61.7998 50.6 61.9998 49.3 61.9998H46.9V65.5998H42.9V51.7998H49.3C50.6 51.7998 51.7 51.9998 52.6 52.3998ZM50.9 58.3998C51.3 57.9998 51.5 57.4998 51.5 56.8998C51.5 56.2998 51.3 55.6998 50.9 55.3998C50.5 54.9998 49.9 54.8998 49.1 54.8998H46.9V58.9998H49.1C49.9 58.9998 50.5 58.7998 50.9 58.3998Z" fill="white"/>
<path d="M59.5 65C58.3 64.4 57.4 63.5 56.7 62.4C56 61.3 55.7 60.1 55.7 58.7C55.7 57.3 56 56.1 56.7 55C57.4 53.9 58.3 53 59.5 52.4C60.7 51.8 62 51.5 63.5 51.5C65 51.5 66.3 51.8 67.5 52.4C68.7 53 69.6 53.9 70.3 55C71 56.1 71.3 57.3 71.3 58.7C71.3 60.1 71 61.3 70.3 62.4C69.6 63.5 68.7 64.4 67.5 65C66.3 65.6 65 65.9 63.5 65.9C62 66 60.7 65.7 59.5 65ZM65.4 62.2C66 61.9 66.4 61.4 66.8 60.8C67.1 60.2 67.3 59.5 67.3 58.7C67.3 57.9 67.1 57.2 66.8 56.6C66.5 56 66 55.5 65.4 55.2C64.8 54.9 64.2 54.7 63.5 54.7C62.8 54.7 62.2 54.9 61.6 55.2C61 55.5 60.6 56 60.2 56.6C59.9 57.2 59.7 57.9 59.7 58.7C59.7 59.5 59.9 60.2 60.2 60.8C60.5 61.4 61 61.9 61.6 62.2C62.2 62.5 62.8 62.7 63.5 62.7C64.2 62.7 64.8 62.5 65.4 62.2Z" fill="white"/>
<path d="M73.6 51.8999V55.0999H84.6V51.8999H73.6ZM73.6 58.0999V65.9999H77.6V61.1999H83.8V58.0999H73.6Z" fill="#D69F03"/>
<path d="M93.6 51.8999H89.7L83.5 65.9999H87.6L88.4 63.8999L88.7 63.2999V63.1999H94.6L95.1 64.4999L95.7 65.8999H99.8L93.6 51.8999ZM89.8 60.1999L89.9 59.9999L91.6 55.7999L93.2 59.7999L93.4 60.2999H89.8V60.1999Z" fill="#D69F03"/>
<path d="M100.6 51.8999H107.3C108.8 51.8999 110.2 52.1999 111.4 52.7999C112.6 53.3999 113.5 54.1999 114.2 55.2999C114.9 56.3999 115.2 57.5999 115.2 58.9999C115.2 60.3999 114.9 61.6999 114.2 62.6999C113.5 63.6999 112.6 64.5999 111.4 65.1999C110.2 65.7999 108.8 66.0999 107.3 66.0999H100.6V51.8999ZM107 62.7999C108.2 62.7999 109.2 62.4999 109.9 61.7999C110.6 61.0999 111 60.1999 111 58.9999C111 57.7999 110.6 56.7999 109.9 56.1999C109.2 55.4999 108.2 55.1999 107 55.1999H104.5V62.8999H107V62.7999Z" fill="#D69F03"/>
<path d="M116.4 51.8999H120.4V65.9999H116.4V51.8999Z" fill="#D69F03"/>
<path d="M144.2 62.1999H142V65.9999H138V51.8999H144.4C145.7 51.8999 146.8 52.0999 147.7 52.4999C148.6 52.8999 149.4 53.4999 149.9 54.2999C150.4 55.0999 150.7 55.9999 150.7 57.0999C150.7 58.0999 150.5 58.9999 150 59.7999C149.5 60.5999 148.8 61.1999 148 61.5999L151 65.9999H146.7L144.2 62.1999ZM146.1 55.5999C145.7 55.1999 145.1 55.0999 144.3 55.0999H142.1V59.1999H144.3C145.1 59.1999 145.7 58.9999 146.1 58.6999C146.5 58.2999 146.7 57.7999 146.7 57.1999C146.8 56.3999 146.5 55.8999 146.1 55.5999Z" fill="#D69F03"/>
<path d="M131.2 51.8999H127.3L121.1 65.9999H125.2L126 63.8999L126.3 63.2999V63.1999H132.2L132.7 64.4999L133.3 65.8999H137.4L131.2 51.8999ZM127.4 60.1999L127.5 59.8999L129.2 55.6999L130.8 59.6999L131 60.1999H127.4Z" fill="#D69F03"/>
</svg>
