<svg width="151" height="67" viewBox="0 0 151 67" fill="none" xmlns="http://www.w3.org/2000/svg">
<path d="M100.5 0.300003V8.5H86.6V15.5H77.4V0.300003H100.5Z" fill="#D69F03"/>
<path d="M98.1 18.6V26.3H86.5C86.5 29.9 86.5 33.5 86.5 37.1C83.5 39.4 77.4 43.3 69.2 43.3C68.2 43.3 66.6 43.3 64.7 42.9C54.4 41 46.7 32.2 46.7 21.6C46.7 9.7 56.7 0 68.9 0C70.5 0 72 0.2 73.5 0.5V8.8C72.4 8.5 71.2 8.4 70 8.4C62.4 8.4 56.3 14.4 56.3 21.8C56.3 29.2 62.4 35.2 70 35.2C72.8 35.2 75.4 34.4 77.6 33V26.5H66V18.8H98.1V18.6Z" fill="#010A2D"/>
<path d="M7 58.1H13.4V64.2C12.6 64.8 11.7 65.2 10.7 65.5C9.7 65.8 8.6 66 7.6 66C6.1 66 4.8 65.7 3.7 65.1C2.5 64.5 1.6 63.6 1 62.5C0.3 61.4 0 60.2 0 58.8C0 57.4 0.3 56.2 1 55.1C1.7 54 2.6 53.1 3.8 52.5C5 51.9 6.3 51.6 7.8 51.6C9.1 51.6 10.3 51.8 11.3 52.3C12.3 52.7 13.2 53.4 13.9 54.2L11.4 56.5C10.5 55.5 9.3 54.9 8 54.9C6.8 54.9 5.8 55.3 5.1 56C4.2 56.6 3.9 57.5 3.9 58.7C3.9 59.5 4.1 60.2 4.4 60.8C4.7 61.4 5.2 61.9 5.8 62.2C6.4 62.5 7.1 62.7 7.8 62.7C8.6 62.7 9.3 62.5 9.9 62.2V61.1H6.9V58.1H7Z" fill="#010A2D"/>
<path d="M20.9 62H18.8V65.7H14.9V51.8H21.3C22.6 51.8 23.7 52 24.6 52.4C25.5 52.8 26.2 53.4 26.7 54.2C27.2 55 27.5 55.9 27.5 56.9C27.5 57.9 27.3 58.8 26.8 59.5C26.3 60.2 25.7 60.8 24.8 61.3L27.8 65.7H23.6L20.9 62ZM22.8 55.4C22.4 55 21.8 54.9 21 54.9H18.8V59H20.9C21.7 59 22.3 58.8 22.7 58.5C23.1 58.1 23.3 57.6 23.3 57C23.4 56.3 23.2 55.8 22.8 55.4Z" fill="#010A2D"/>
<path d="M30 64.3C28.9 63.2 28.3 61.6 28.3 59.5V51.8H32.2V59.4C32.2 61.6 33.1 62.7 34.8 62.7C36.5 62.7 37.4 61.6 37.4 59.4V51.8H41.3V59.5C41.3 61.6 40.7 63.2 39.6 64.3C38.5 65.4 36.9 66 34.8 66C32.7 66 31.2 65.4 30 64.3Z" fill="#010A2D"/>
<path d="M52.6 52.4C53.5 52.8 54.2 53.4 54.7 54.2C55.2 55 55.5 55.9 55.5 56.9C55.5 57.9 55.2 58.9 54.7 59.6C54.2 60.4 53.5 61 52.6 61.4C51.7 61.8 50.6 62 49.3 62H46.9V65.6H42.9V51.8H49.3C50.6 51.8 51.7 52 52.6 52.4ZM50.9 58.4C51.3 58 51.5 57.5 51.5 56.9C51.5 56.3 51.3 55.7 50.9 55.4C50.5 55 49.9 54.9 49.1 54.9H46.9V59H49.1C49.9 59 50.5 58.8 50.9 58.4Z" fill="#010A2D"/>
<path d="M59.5 65C58.3 64.4 57.4 63.5 56.7 62.4C56 61.3 55.7 60.1 55.7 58.7C55.7 57.3 56 56.1 56.7 55C57.4 53.9 58.3 53 59.5 52.4C60.7 51.8 62 51.5 63.5 51.5C65 51.5 66.3 51.8 67.5 52.4C68.7 53 69.6 53.9 70.3 55C71 56.1 71.3 57.3 71.3 58.7C71.3 60.1 71 61.3 70.3 62.4C69.6 63.5 68.7 64.4 67.5 65C66.3 65.6 65 65.9 63.5 65.9C62 66 60.7 65.7 59.5 65ZM65.4 62.2C66 61.9 66.4 61.4 66.8 60.8C67.1 60.2 67.3 59.5 67.3 58.7C67.3 57.9 67.1 57.2 66.8 56.6C66.5 56 66 55.5 65.4 55.2C64.8 54.9 64.2 54.7 63.5 54.7C62.8 54.7 62.2 54.9 61.6 55.2C61 55.5 60.6 56 60.2 56.6C59.9 57.2 59.7 57.9 59.7 58.7C59.7 59.5 59.9 60.2 60.2 60.8C60.5 61.4 61 61.9 61.6 62.2C62.2 62.5 62.8 62.7 63.5 62.7C64.2 62.7 64.8 62.5 65.4 62.2Z" fill="#010A2D"/>
<path d="M73.6 51.9V55.1H84.6V51.9H73.6ZM73.6 58.1V66H77.6V61.2H83.8V58.1H73.6Z" fill="#D69F03"/>
<path d="M93.6 51.9H89.7L83.5 66H87.6L88.4 63.9L88.7 63.3V63.2H94.6L95.1 64.5L95.7 65.9H99.8L93.6 51.9ZM89.8 60.2L89.9 60L91.6 55.8L93.2 59.8L93.4 60.3H89.8V60.2Z" fill="#D69F03"/>
<path d="M100.6 51.9H107.3C108.8 51.9 110.2 52.2 111.4 52.8C112.6 53.4 113.5 54.2 114.2 55.3C114.9 56.4 115.2 57.6 115.2 59C115.2 60.4 114.9 61.7 114.2 62.7C113.5 63.7 112.6 64.6 111.4 65.2C110.2 65.8 108.8 66.1 107.3 66.1H100.6V51.9ZM107 62.8C108.2 62.8 109.2 62.5 109.9 61.8C110.6 61.1 111 60.2 111 59C111 57.8 110.6 56.8 109.9 56.2C109.2 55.5 108.2 55.2 107 55.2H104.5V62.9H107V62.8Z" fill="#D69F03"/>
<path d="M116.5 51.9H120.5V66H116.5V51.9Z" fill="#D69F03"/>
<path d="M144.2 62.2H142V66H138V51.9H144.4C145.7 51.9 146.8 52.1 147.7 52.5C148.6 52.9 149.4 53.5 149.9 54.3C150.4 55.1 150.7 56 150.7 57.1C150.7 58.1 150.5 59 150 59.8C149.5 60.6 148.8 61.2 148 61.6L151 66H146.7L144.2 62.2ZM146.1 55.6C145.7 55.2 145.1 55.1 144.3 55.1H142.1V59.2H144.3C145.1 59.2 145.7 59 146.1 58.7C146.5 58.3 146.7 57.8 146.7 57.2C146.8 56.4 146.5 55.9 146.1 55.6Z" fill="#D69F03"/>
<path d="M131.2 51.9H127.3L121.1 66H125.2L126 63.9L126.3 63.3V63.2H132.2L132.7 64.5L133.3 65.9H137.4L131.2 51.9ZM127.4 60.2L127.5 59.9L129.2 55.7L130.8 59.7L131 60.2H127.4Z" fill="#D69F03"/>
</svg>
